<svg width="115" height="32" viewBox="0 0 115 32" fill="none" xmlns="http://www.w3.org/2000/svg">
<g clip-path="url(#clip0_1666_4243)">
<path d="M38.5925 15.1041H0V4.27734C0 3.14292 0.448268 2.05496 1.24619 1.2528C2.04411 0.450647 3.12633 0 4.25476 0L52.4584 0C52.7377 0 53.0144 0.0553183 53.2725 0.162797C53.5306 0.270275 53.7651 0.427808 53.9626 0.626402C54.1602 0.824996 54.3169 1.06076 54.4238 1.32024C54.5307 1.57971 54.5857 1.85782 54.5857 2.13867C54.5857 2.41943 54.5307 2.69745 54.4238 2.95682C54.3168 3.21618 54.1601 3.45182 53.9625 3.65026C53.765 3.84871 53.5304 4.00606 53.2723 4.11333C53.0142 4.2206 52.7376 4.27569 52.4584 4.27543H4.25287V10.8268H34.3396C35.4677 10.8273 36.5494 11.2782 37.3469 12.0803C38.1444 12.8824 38.5925 13.97 38.5925 15.1041Z" fill="url(#paint0_linear_1666_4243)"/>
<path d="M25.6424 32.0001H4.25477C3.12633 32.0001 2.04411 31.5495 1.24619 30.7473C0.448269 29.9452 0 28.8572 0 27.7228L0 16.896H38.5925C38.5925 18.0301 38.1445 19.1178 37.3469 19.9199C36.5494 20.722 35.4677 21.1728 34.3396 21.1733H4.25287V27.7228H25.6424V32.0001Z" fill="url(#paint1_linear_1666_4243)"/>
<path d="M115 15.1041H60.4141V4.27543C60.4146 3.14134 60.8631 2.05387 61.6609 1.25213C62.4588 0.450385 63.5407 -1.12609e-07 64.6688 0L112.872 0C113.437 0 113.978 0.225324 114.377 0.626402C114.776 1.02748 115 1.57146 115 2.13867C115 2.41943 114.945 2.69745 114.838 2.95682C114.731 3.21618 114.574 3.45182 114.377 3.65026C114.179 3.84871 113.944 4.00606 113.686 4.11333C113.428 4.2206 113.152 4.27569 112.872 4.27543H64.6688V10.8268H110.743C111.871 10.8273 112.953 11.2782 113.75 12.0803C114.548 12.8824 114.996 13.97 114.996 15.1041H115Z" fill="url(#paint2_linear_1666_4243)"/>
<path d="M110.747 32.0001H89.3576V27.7228H110.747V21.1733H64.6727C63.5443 21.1733 62.4621 20.7227 61.6642 19.9205C60.8662 19.1184 60.418 18.0304 60.418 16.896H115V27.7228C115 28.8569 114.552 29.9445 113.754 30.7466C112.957 31.5487 111.875 31.9996 110.747 32.0001Z" fill="url(#paint3_linear_1666_4243)"/>
<path d="M36.7339 28.6434H29.8758C29.5914 28.6434 29.4037 28.7025 29.307 28.8226C29.2011 29.017 29.1549 29.2385 29.1743 29.4593V32.0001H28.2148V29.282C28.2148 28.6987 28.3678 28.2927 28.6737 28.064C28.9796 27.8352 29.422 27.7215 30.0009 27.7228H36.7111C36.774 27.7128 36.8384 27.7177 36.8991 27.7371C36.9598 27.7564 37.0153 27.7897 37.061 27.8342C37.1068 27.8787 37.1417 27.9333 37.1629 27.9937C37.1841 28.0541 37.191 28.1186 37.1832 28.1821C37.1918 28.2439 37.1861 28.3068 37.1667 28.366C37.1473 28.4252 37.1146 28.4792 37.0712 28.5237C37.0278 28.5683 36.9749 28.6022 36.9164 28.623C36.8579 28.6437 36.7954 28.6507 36.7339 28.6434Z" fill="url(#paint4_linear_1666_4243)"/>
<path d="M45.1796 28.6432H39.6658C39.3814 28.6432 39.1937 28.7022 39.097 28.8223C38.9911 29.0167 38.945 29.2382 38.9643 29.459V31.9998H38.0049V29.2817C38.0049 28.6984 38.1578 28.2924 38.4637 28.0637C38.7696 27.835 39.212 27.7212 39.791 27.7225H45.3161C45.7497 27.7093 46.173 27.8572 46.5049 28.138C46.6648 28.2805 46.7909 28.4572 46.8739 28.6551C46.9569 28.853 46.9948 29.0672 46.9846 29.2817C46.9917 29.4899 46.9552 29.6972 46.8775 29.8903C46.7997 30.0834 46.6825 30.2579 46.5334 30.4025C46.3827 30.5485 46.2043 30.6626 46.0089 30.7379C45.8134 30.8133 45.6049 30.8483 45.3957 30.8409H41.469C41.1523 30.8409 40.9969 30.6922 40.9969 30.3949C40.9969 30.0975 41.1523 29.9508 41.469 29.9508H45.2611C45.4693 29.9711 45.6775 29.9127 45.8451 29.7868C45.9025 29.7284 45.9472 29.6585 45.9763 29.5817C46.0053 29.5049 46.0181 29.4228 46.0138 29.3408C46.0143 29.2454 45.9957 29.1509 45.9592 29.0628C45.9228 28.9748 45.8691 28.8949 45.8015 28.828C45.6239 28.6916 45.4025 28.6257 45.1796 28.6432Z" fill="url(#paint5_linear_1666_4243)"/>
<path d="M56.8152 27.7227V30.456C56.8152 31.2668 56.515 31.7516 55.9146 31.9104C55.6191 31.9771 55.3167 32.0072 55.0139 32H48.317C48.2539 32.01 48.1894 32.0051 48.1285 31.9856C48.0676 31.9662 48.0121 31.9328 47.9663 31.888C47.9205 31.8433 47.8856 31.7884 47.8646 31.7278C47.8435 31.6671 47.8368 31.6024 47.8449 31.5387C47.836 31.4761 47.8417 31.4123 47.8616 31.3523C47.8816 31.2924 47.9151 31.2379 47.9597 31.1933C48.0043 31.1487 48.0586 31.1151 48.1183 31.0954C48.178 31.0756 48.2416 31.0701 48.3038 31.0793H55.1599C55.6226 31.0793 55.8558 30.8659 55.8558 30.4408V30.1568H49.6348C49.0338 30.1568 48.5939 30.0538 48.3189 29.8461C48.0023 29.6078 47.8449 29.198 47.8449 28.6128V28.2106C47.8449 27.8847 48.0023 27.7207 48.317 27.7207C48.3829 27.7106 48.4502 27.7161 48.5137 27.7368C48.5771 27.7574 48.6348 27.7926 48.6823 27.8396C48.7298 27.8866 48.7657 27.9441 48.7872 28.0075C48.8087 28.0709 48.8152 28.1385 48.8062 28.2049V28.426C48.7954 28.6326 48.8304 28.839 48.9086 29.0303C48.9794 29.1675 49.1766 29.2361 49.5002 29.2361H55.8558V27.7207L56.8152 27.7227Z" fill="url(#paint6_linear_1666_4243)"/>
<path d="M65.1792 28.6433H58.8255V31.5025C58.835 31.5691 58.829 31.6369 58.8079 31.7007C58.7868 31.7645 58.7511 31.8225 58.7038 31.87C58.6566 31.9176 58.5989 31.9534 58.5354 31.9746C58.472 31.9959 58.4044 32.0019 58.3382 31.9924C58.2739 32.0012 58.2085 31.995 58.1469 31.9741C58.0854 31.9533 58.0295 31.9185 57.9836 31.8723C57.9377 31.8262 57.9031 31.77 57.8824 31.7082C57.8616 31.6463 57.8554 31.5805 57.8642 31.5158V27.7227H65.0351C66.236 27.7227 66.8364 28.2424 66.8364 29.2819V31.5235C66.8364 31.8399 66.6714 32 66.3415 32C66.2777 32.0084 66.2128 32.0018 66.152 31.9807C66.0911 31.9595 66.036 31.9245 65.991 31.8783C65.9459 31.8321 65.9122 31.776 65.8924 31.7144C65.8726 31.6528 65.8673 31.5874 65.877 31.5235V29.4591C65.8953 29.2394 65.8464 29.0192 65.7367 28.8282C65.64 28.7043 65.4561 28.6433 65.1792 28.6433Z" fill="url(#paint7_linear_1666_4243)"/>
<path d="M75.2 28.6433H68.8444V31.5025C68.8539 31.5691 68.8479 31.6369 68.8268 31.7007C68.8057 31.7645 68.77 31.8225 68.7227 31.87C68.6755 31.9176 68.6178 31.9534 68.5543 31.9746C68.4909 31.9959 68.4233 32.0019 68.3571 31.9924C68.2929 32.0013 68.2275 31.9951 68.166 31.9742C68.1046 31.9534 68.0488 31.9185 68.003 31.8723C67.9572 31.8261 67.9228 31.7699 67.9023 31.708C67.8818 31.6462 67.8759 31.5804 67.885 31.5158V27.7227H75.0521C76.2542 27.7227 76.8547 28.2424 76.8534 29.2819V31.5235C76.8534 31.8399 76.6884 32 76.3604 32C76.2965 32.0087 76.2313 32.0024 76.1703 31.9814C76.1092 31.9604 76.0538 31.9254 76.0085 31.8791C75.9632 31.8329 75.9293 31.7767 75.9094 31.7149C75.8895 31.6532 75.8843 31.5876 75.894 31.5235V29.4591C75.9123 29.2394 75.8634 29.0192 75.7537 28.8282C75.6532 28.7043 75.475 28.6433 75.2 28.6433Z" fill="url(#paint8_linear_1666_4243)"/>
<path d="M85.1217 28.6433H80.0137C79.1844 28.6433 78.7705 29.0493 78.7717 29.8613C78.773 30.6733 79.2356 31.0793 80.1597 31.0793H83.3242C83.3864 31.0701 83.4499 31.0756 83.5096 31.0954C83.5694 31.1151 83.6237 31.1487 83.6683 31.1933C83.7128 31.2379 83.7464 31.2924 83.7663 31.3523C83.7863 31.4123 83.792 31.4761 83.783 31.5387C83.7926 31.6001 83.7878 31.663 83.7691 31.7222C83.7505 31.7815 83.7183 31.8356 83.6754 31.8803C83.6324 31.925 83.5796 31.9591 83.5213 31.9799C83.463 32.0006 83.4008 32.0075 83.3394 32H80.0231C79.3235 32 78.7793 31.8094 78.3906 31.4491C78.0019 31.0889 77.8066 30.5552 77.8066 29.8613C77.8066 28.4355 78.5505 27.7227 80.0383 27.7227H85.006C85.5748 27.7227 86.0128 27.837 86.32 28.0639C86.6271 28.2907 86.7769 28.6986 86.7769 29.2819V32H85.8175V29.4591C85.8359 29.2394 85.7869 29.0192 85.6772 28.8282C85.5824 28.7043 85.3985 28.6433 85.1217 28.6433Z" fill="url(#paint9_linear_1666_4243)"/>
</g>
<defs>
<linearGradient id="paint0_linear_1666_4243" x1="41.1578" y1="-48.4003" x2="3.27645" y2="90.7275" gradientUnits="userSpaceOnUse">
<stop offset="0.01" stop-color="#EDC471"/>
<stop offset="0.19" stop-color="#E4BD73"/>
<stop offset="0.6" stop-color="#9F6C14"/>
<stop offset="0.85" stop-color="#E6BA70"/>
<stop offset="0.87" stop-color="#ECC178"/>
<stop offset="1" stop-color="#F0E3CB"/>
</linearGradient>
<linearGradient id="paint1_linear_1666_4243" x1="37.2519" y1="-49.4638" x2="-0.629449" y2="89.664" gradientUnits="userSpaceOnUse">
<stop offset="0.01" stop-color="#EDC471"/>
<stop offset="0.19" stop-color="#E4BD73"/>
<stop offset="0.6" stop-color="#9F6C14"/>
<stop offset="0.85" stop-color="#E6BA70"/>
<stop offset="0.87" stop-color="#ECC178"/>
<stop offset="1" stop-color="#F0E3CB"/>
</linearGradient>
<linearGradient id="paint2_linear_1666_4243" x1="99.035" y1="-32.6424" x2="61.1536" y2="106.487" gradientUnits="userSpaceOnUse">
<stop offset="0.01" stop-color="#EDC471"/>
<stop offset="0.19" stop-color="#E4BD73"/>
<stop offset="0.6" stop-color="#9F6C14"/>
<stop offset="0.85" stop-color="#E6BA70"/>
<stop offset="0.87" stop-color="#ECC178"/>
<stop offset="1" stop-color="#F0E3CB"/>
</linearGradient>
<linearGradient id="paint3_linear_1666_4243" x1="102.346" y1="-31.7407" x2="64.4661" y2="107.389" gradientUnits="userSpaceOnUse">
<stop offset="0.01" stop-color="#EDC471"/>
<stop offset="0.19" stop-color="#E4BD73"/>
<stop offset="0.6" stop-color="#9F6C14"/>
<stop offset="0.85" stop-color="#E6BA70"/>
<stop offset="0.87" stop-color="#ECC178"/>
<stop offset="1" stop-color="#F0E3CB"/>
</linearGradient>
<linearGradient id="paint4_linear_1666_4243" x1="52.6134" y1="-45.2817" x2="14.7339" y2="93.848" gradientUnits="userSpaceOnUse">
<stop offset="0.01" stop-color="#EDC471"/>
<stop offset="0.19" stop-color="#E4BD73"/>
<stop offset="0.6" stop-color="#9F6C14"/>
<stop offset="0.85" stop-color="#E6BA70"/>
<stop offset="0.87" stop-color="#ECC178"/>
<stop offset="1" stop-color="#F0E3CB"/>
</linearGradient>
<linearGradient id="paint5_linear_1666_4243" x1="61.8915" y1="-42.7564" x2="24.0101" y2="96.3733" gradientUnits="userSpaceOnUse">
<stop offset="0.01" stop-color="#EDC471"/>
<stop offset="0.19" stop-color="#E4BD73"/>
<stop offset="0.6" stop-color="#9F6C14"/>
<stop offset="0.85" stop-color="#E6BA70"/>
<stop offset="0.87" stop-color="#ECC178"/>
<stop offset="1" stop-color="#F0E3CB"/>
</linearGradient>
<linearGradient id="paint6_linear_1666_4243" x1="71.1077" y1="-40.2459" x2="33.2263" y2="98.8819" gradientUnits="userSpaceOnUse">
<stop offset="0.01" stop-color="#EDC471"/>
<stop offset="0.19" stop-color="#E4BD73"/>
<stop offset="0.6" stop-color="#9F6C14"/>
<stop offset="0.85" stop-color="#E6BA70"/>
<stop offset="0.87" stop-color="#ECC178"/>
<stop offset="1" stop-color="#F0E3CB"/>
</linearGradient>
<linearGradient id="paint7_linear_1666_4243" x1="80.4975" y1="-37.6898" x2="42.6161" y2="101.44" gradientUnits="userSpaceOnUse">
<stop offset="0.01" stop-color="#EDC471"/>
<stop offset="0.19" stop-color="#E4BD73"/>
<stop offset="0.6" stop-color="#9F6C14"/>
<stop offset="0.85" stop-color="#E6BA70"/>
<stop offset="0.87" stop-color="#ECC178"/>
<stop offset="1" stop-color="#F0E3CB"/>
</linearGradient>
<linearGradient id="paint8_linear_1666_4243" x1="89.8319" y1="-35.147" x2="51.9505" y2="103.981" gradientUnits="userSpaceOnUse">
<stop offset="0.01" stop-color="#EDC471"/>
<stop offset="0.19" stop-color="#E4BD73"/>
<stop offset="0.6" stop-color="#9F6C14"/>
<stop offset="0.85" stop-color="#E6BA70"/>
<stop offset="0.87" stop-color="#ECC178"/>
<stop offset="1" stop-color="#F0E3CB"/>
</linearGradient>
<linearGradient id="paint9_linear_1666_4243" x1="99.3383" y1="-32.5604" x2="61.457" y2="106.569" gradientUnits="userSpaceOnUse">
<stop offset="0.01" stop-color="#EDC471"/>
<stop offset="0.19" stop-color="#E4BD73"/>
<stop offset="0.6" stop-color="#9F6C14"/>
<stop offset="0.85" stop-color="#E6BA70"/>
<stop offset="0.87" stop-color="#ECC178"/>
<stop offset="1" stop-color="#F0E3CB"/>
</linearGradient>
<clipPath id="clip0_1666_4243">
<rect width="115" height="32" fill="white"/>
</clipPath>
</defs>
</svg>
