<svg width="195" height="50" viewBox="0 0 195 50" fill="none" xmlns="http://www.w3.org/2000/svg">
<rect x="0.25" y="0.25" width="194.5" height="49.5" rx="9.75" stroke="#F5F5F5" stroke-width="0.5"/>
<path d="M14.5832 23.165C13.6782 23.165 12.8857 23.02 12.2057 22.73C11.5257 22.435 10.9582 22.0325 10.5032 21.5225C10.0532 21.0075 9.71572 20.4175 9.49072 19.7525C9.26572 19.0875 9.15322 18.385 9.15322 17.645C9.15322 16.605 9.36322 15.6675 9.78322 14.8325C10.2082 13.9975 10.8207 13.335 11.6207 12.845C12.4207 12.355 13.3932 12.11 14.5382 12.11C15.4082 12.11 16.1757 12.2525 16.8407 12.5375C17.5107 12.8225 18.0732 13.2175 18.5282 13.7225C18.9832 14.2275 19.3257 14.815 19.5557 15.485C19.7857 16.155 19.9007 16.8725 19.9007 17.6375C19.9007 18.6925 19.6907 19.6375 19.2707 20.4725C18.8507 21.3025 18.2432 21.96 17.4482 22.445C16.6532 22.925 15.6982 23.165 14.5832 23.165ZM14.5457 21.995C15.2307 21.995 15.8207 21.8775 16.3157 21.6425C16.8107 21.4025 17.2182 21.0775 17.5382 20.6675C17.8632 20.2575 18.1032 19.7925 18.2582 19.2725C18.4132 18.7475 18.4907 18.2025 18.4907 17.6375C18.4907 17.0275 18.4057 16.46 18.2357 15.935C18.0707 15.405 17.8207 14.9425 17.4857 14.5475C17.1557 14.1475 16.7457 13.8375 16.2557 13.6175C15.7657 13.3925 15.1957 13.28 14.5457 13.28C13.8757 13.28 13.2907 13.3975 12.7907 13.6325C12.2957 13.8675 11.8832 14.19 11.5532 14.6C11.2232 15.005 10.9757 15.47 10.8107 15.995C10.6457 16.515 10.5632 17.0625 10.5632 17.6375C10.5632 18.2175 10.6432 18.7675 10.8032 19.2875C10.9632 19.8075 11.2057 20.2725 11.5307 20.6825C11.8607 21.0875 12.2757 21.4075 12.7757 21.6425C13.2757 21.8775 13.8657 21.995 14.5457 21.995ZM27.4515 22.0625L27.4665 20.9675H27.969C28.849 20.9675 29.564 20.8425 30.114 20.5925C30.669 20.3425 31.079 19.975 31.344 19.49C31.609 19 31.7415 18.3925 31.7415 17.6675C31.7415 16.9325 31.6115 16.32 31.3515 15.83C31.0915 15.335 30.689 14.9625 30.144 14.7125C29.604 14.4625 28.904 14.3375 28.044 14.3375H27.5415L27.5265 13.2425H28.059C29.274 13.2425 30.254 13.43 30.999 13.805C31.744 14.18 32.2865 14.7 32.6265 15.365C32.9715 16.025 33.144 16.7925 33.144 17.6675C33.144 18.5075 32.974 19.26 32.634 19.925C32.299 20.585 31.7515 21.1075 30.9915 21.4925C30.2365 21.8725 29.224 22.0625 27.954 22.0625H27.4515ZM26.784 22.0625C25.829 22.0625 25.0215 21.9525 24.3615 21.7325C23.7015 21.5125 23.1665 21.205 22.7565 20.81C22.3515 20.41 22.0565 19.945 21.8715 19.415C21.6865 18.88 21.594 18.2975 21.594 17.6675C21.594 16.7925 21.764 16.025 22.104 15.365C22.444 14.7 22.9865 14.18 23.7315 13.805C24.4815 13.43 25.464 13.2425 26.679 13.2425H27.204L27.189 14.3375H26.6865C25.8365 14.3375 25.139 14.4625 24.594 14.7125C24.049 14.9625 23.6465 15.335 23.3865 15.83C23.1265 16.32 22.9965 16.9325 22.9965 17.6675C22.9965 18.3925 23.1265 19 23.3865 19.49C23.6515 19.975 24.0615 20.3425 24.6165 20.5925C25.1715 20.8425 25.8865 20.9675 26.7615 20.9675H27.264L27.279 22.0625H26.784ZM26.6865 23.315C26.6865 23.04 26.6865 22.78 26.6865 22.535C26.6865 22.29 26.6865 22.04 26.6865 21.785L26.7165 21.755C26.7165 21.41 26.7165 21.0575 26.7165 20.6975C26.7165 20.3325 26.7165 19.9525 26.7165 19.5575V15.7475C26.7165 15.3525 26.7165 14.975 26.7165 14.615C26.7165 14.25 26.7165 13.895 26.7165 13.55L26.6865 13.52C26.6865 13.265 26.6865 13.015 26.6865 12.77C26.6865 12.52 26.6865 12.26 26.6865 11.99H28.044C28.044 12.26 28.044 12.52 28.044 12.77C28.044 13.015 28.044 13.265 28.044 13.52L28.014 13.55C28.014 13.895 28.014 14.25 28.014 14.615C28.014 14.975 28.014 15.3525 28.014 15.7475V19.5575C28.014 19.9525 28.014 20.33 28.014 20.69C28.014 21.05 28.014 21.405 28.014 21.755L28.044 21.785C28.044 22.035 28.044 22.285 28.044 22.535C28.044 22.78 28.044 23.04 28.044 23.315H26.6865ZM35.4542 23C35.4542 22.405 35.4542 21.8325 35.4542 21.2825C35.4542 20.7325 35.4542 20.1275 35.4542 19.4675V15.8825C35.4542 15.2075 35.4542 14.5925 35.4542 14.0375C35.4542 13.4775 35.4542 12.9 35.4542 12.305H36.7817C36.7817 12.905 36.7817 13.485 36.7817 14.045C36.7817 14.6 36.7817 15.2125 36.7817 15.8825V20.675H36.8942L39.2192 17.39C39.7942 16.58 40.3792 15.755 40.9742 14.915C41.5692 14.07 42.1842 13.2 42.8192 12.305H43.9892C43.9892 12.9 43.9892 13.4775 43.9892 14.0375C43.9892 14.5925 43.9892 15.2075 43.9892 15.8825V19.4675C43.9892 20.1275 43.9892 20.7325 43.9892 21.2825C43.9892 21.8325 43.9892 22.405 43.9892 23H42.6617C42.6617 22.405 42.6617 21.8325 42.6617 21.2825C42.6617 20.7275 42.6617 20.12 42.6617 19.46V14.6225H42.5492L40.2242 17.9C39.5192 18.895 38.8742 19.805 38.2892 20.63C37.7042 21.455 37.1442 22.245 36.6092 23H35.4542ZM55.5903 25.3025L55.5078 22.7825L55.8303 23H47.0628C47.0628 22.405 47.0628 21.8325 47.0628 21.2825C47.0628 20.7325 47.0628 20.1275 47.0628 19.4675V15.8825C47.0628 15.2075 47.0628 14.5925 47.0628 14.0375C47.0628 13.4775 47.0628 12.9 47.0628 12.305H48.4203C48.4203 12.9 48.4203 13.4775 48.4203 14.0375C48.4203 14.5925 48.4203 15.2075 48.4203 15.8825V19.2575C48.4203 19.9175 48.4203 20.5225 48.4203 21.0725C48.4203 21.6225 48.4203 22.195 48.4203 22.79L47.7378 21.83H52.9428C53.5528 21.83 54.1803 21.83 54.8253 21.83C55.4753 21.83 56.1178 21.83 56.7528 21.83C56.7528 22.12 56.7528 22.415 56.7528 22.715C56.7528 23.015 56.7528 23.31 56.7528 23.6C56.7528 23.885 56.7528 24.17 56.7528 24.455C56.7528 24.74 56.7528 25.0225 56.7528 25.3025H55.5903ZM54.0153 22.79C54.0153 22.195 54.0153 21.6225 54.0153 21.0725C54.0153 20.5225 54.0153 19.9175 54.0153 19.2575V15.8825C54.0153 15.2075 54.0153 14.5925 54.0153 14.0375C54.0153 13.4775 54.0153 12.9 54.0153 12.305H55.3728C55.3728 12.9 55.3728 13.4775 55.3728 14.0375C55.3728 14.5925 55.3728 15.2075 55.3728 15.8825V19.2575C55.3728 19.9175 55.3728 20.5225 55.3728 21.0725C55.3728 21.6225 55.3728 22.195 55.3728 22.79H54.0153ZM58.8325 23C58.8325 22.405 58.8325 21.8325 58.8325 21.2825C58.8325 20.7325 58.8325 20.1275 58.8325 19.4675V15.8825C58.8325 15.2075 58.8325 14.5925 58.8325 14.0375C58.8325 13.4775 58.8325 12.9 58.8325 12.305H60.16C60.16 12.905 60.16 13.485 60.16 14.045C60.16 14.6 60.16 15.2125 60.16 15.8825V20.675H60.2725L62.5975 17.39C63.1725 16.58 63.7575 15.755 64.3525 14.915C64.9475 14.07 65.5625 13.2 66.1975 12.305H67.3675C67.3675 12.9 67.3675 13.4775 67.3675 14.0375C67.3675 14.5925 67.3675 15.2075 67.3675 15.8825V19.4675C67.3675 20.1275 67.3675 20.7325 67.3675 21.2825C67.3675 21.8325 67.3675 22.405 67.3675 23H66.04C66.04 22.405 66.04 21.8325 66.04 21.2825C66.04 20.7275 66.04 20.12 66.04 19.46V14.6225H65.9275L63.6025 17.9C62.8975 18.895 62.2525 19.805 61.6675 20.63C61.0825 21.455 60.5225 22.245 59.9875 23H58.8325ZM69.4961 23C69.7061 22.425 69.9236 21.82 70.1486 21.185C70.3786 20.55 70.5986 19.9475 70.8086 19.3775L72.1361 15.7025C72.3711 15.0425 72.5861 14.4475 72.7811 13.9175C72.9761 13.3825 73.1711 12.845 73.3661 12.305H75.1511C75.3461 12.855 75.5386 13.395 75.7286 13.925C75.9186 14.455 76.1311 15.05 76.3661 15.71L77.6861 19.3925C77.8961 19.9825 78.1111 20.59 78.3311 21.215C78.5561 21.835 78.7711 22.43 78.9761 23H77.5661C77.3511 22.375 77.1286 21.7325 76.8986 21.0725C76.6736 20.4075 76.4611 19.7825 76.2611 19.1975L74.3111 13.5275H74.1836L72.2186 19.145C72.0036 19.755 71.7811 20.395 71.5511 21.065C71.3211 21.73 71.0936 22.375 70.8686 23H69.4961ZM71.4761 20.315L71.5961 19.25H77.0111L77.1086 20.315H71.4761ZM80.8426 23.135C80.7226 23.135 80.6051 23.13 80.4901 23.12C80.3801 23.11 80.2751 23.0975 80.1751 23.0825C80.0801 23.0675 79.9926 23.0525 79.9126 23.0375L79.9951 21.8525C80.1051 21.8725 80.2051 21.89 80.2951 21.905C80.3851 21.915 80.4676 21.92 80.5426 21.92C80.9826 21.92 81.3201 21.74 81.5551 21.38C81.7901 21.015 81.9626 20.4525 82.0726 19.6925C82.1876 18.9275 82.2801 17.955 82.3501 16.775C82.3951 16.03 82.4376 15.2875 82.4776 14.5475C82.5226 13.8025 82.5676 13.055 82.6126 12.305H89.5951C89.5951 12.9 89.5951 13.4775 89.5951 14.0375C89.5951 14.5925 89.5951 15.2075 89.5951 15.8825V19.4675C89.5951 20.1275 89.5951 20.7325 89.5951 21.2825C89.5951 21.8325 89.5951 22.405 89.5951 23H88.2376C88.2376 22.405 88.2376 21.8325 88.2376 21.2825C88.2376 20.7325 88.2376 20.1275 88.2376 19.4675V16.0775C88.2376 15.4075 88.2376 14.795 88.2376 14.24C88.2376 13.68 88.2376 13.1 88.2376 12.5L88.9651 13.475H83.1151L83.8801 12.5825C83.8301 13.3475 83.7801 14.115 83.7301 14.885C83.6851 15.65 83.6326 16.4425 83.5726 17.2625C83.5076 18.2575 83.4326 19.1225 83.3476 19.8575C83.2626 20.5925 83.1301 21.2025 82.9501 21.6875C82.7751 22.1725 82.5201 22.535 82.1851 22.775C81.8501 23.015 81.4026 23.135 80.8426 23.135ZM96.1344 23C95.4444 23 94.8194 23 94.2594 23C93.7044 23 93.1769 23 92.6769 23C92.6769 22.405 92.6769 21.8325 92.6769 21.2825C92.6769 20.7325 92.6769 20.1275 92.6769 19.4675V15.8825C92.6769 15.2125 92.6769 14.5975 92.6769 14.0375C92.6769 13.4775 92.6769 12.9 92.6769 12.305H94.0119C94.0119 12.9 94.0119 13.4775 94.0119 14.0375C94.0119 14.5975 94.0119 15.2125 94.0119 15.8825V19.2575C94.0119 19.7275 94.0119 20.1725 94.0119 20.5925C94.0119 21.0075 94.0119 21.435 94.0119 21.875H95.9169C96.5569 21.875 97.0794 21.8 97.4844 21.65C97.8944 21.495 98.1969 21.2525 98.3919 20.9225C98.5869 20.5925 98.6844 20.1575 98.6844 19.6175C98.6844 19.1675 98.6119 18.8125 98.4669 18.5525C98.3269 18.2875 98.1419 18.09 97.9119 17.96C97.6819 17.83 97.4294 17.745 97.1544 17.705C96.8844 17.66 96.6244 17.6375 96.3744 17.6375H93.8394V16.5125C94.1494 16.5125 94.5244 16.5125 94.9644 16.5125C95.4044 16.5125 95.9019 16.5125 96.4569 16.5125C97.2719 16.5125 97.9444 16.62 98.4744 16.835C99.0094 17.05 99.4094 17.3875 99.6744 17.8475C99.9394 18.3025 100.072 18.8925 100.072 19.6175C100.072 20.2725 99.9494 20.855 99.7044 21.365C99.4644 21.875 99.0569 22.275 98.4819 22.565C97.9119 22.855 97.1294 23 96.1344 23ZM109.491 23C109.491 22.405 109.491 21.8325 109.491 21.2825C109.491 20.7325 109.491 20.1275 109.491 19.4675V15.8825C109.491 15.2075 109.491 14.5925 109.491 14.0375C109.491 13.4775 109.491 12.9 109.491 12.305H110.849C110.849 12.9 110.849 13.4775 110.849 14.0375C110.849 14.5925 110.849 15.2075 110.849 15.8825V19.4675C110.849 20.1275 110.849 20.7325 110.849 21.2825C110.849 21.8325 110.849 22.405 110.849 23H109.491ZM102.381 23C102.381 22.405 102.381 21.8325 102.381 21.2825C102.381 20.7325 102.381 20.1275 102.381 19.4675V15.8825C102.381 15.2075 102.381 14.5925 102.381 14.0375C102.381 13.4775 102.381 12.9 102.381 12.305H103.739C103.739 12.9 103.739 13.4775 103.739 14.0375C103.739 14.5925 103.739 15.2075 103.739 15.8825V19.4675C103.739 20.1275 103.739 20.7325 103.739 21.2825C103.739 21.8325 103.739 22.405 103.739 23H102.381ZM103.266 18.17V17H110.009V18.17H103.266ZM117.374 23C116.684 23 116.059 23 115.499 23C114.944 23 114.416 23 113.916 23C113.916 22.405 113.916 21.8325 113.916 21.2825C113.916 20.7325 113.916 20.1275 113.916 19.4675V15.8825C113.916 15.2125 113.916 14.5975 113.916 14.0375C113.916 13.4775 113.916 12.9 113.916 12.305H115.251C115.251 12.9 115.251 13.4775 115.251 14.0375C115.251 14.5975 115.251 15.2125 115.251 15.8825V19.2575C115.251 19.7275 115.251 20.1725 115.251 20.5925C115.251 21.0075 115.251 21.435 115.251 21.875H117.156C117.796 21.875 118.319 21.8 118.724 21.65C119.134 21.495 119.436 21.2525 119.631 20.9225C119.826 20.5925 119.924 20.1575 119.924 19.6175C119.924 19.1675 119.851 18.8125 119.706 18.5525C119.566 18.2875 119.381 18.09 119.151 17.96C118.921 17.83 118.669 17.745 118.394 17.705C118.124 17.66 117.864 17.6375 117.614 17.6375H115.079V16.5125C115.389 16.5125 115.764 16.5125 116.204 16.5125C116.644 16.5125 117.141 16.5125 117.696 16.5125C118.511 16.5125 119.184 16.62 119.714 16.835C120.249 17.05 120.649 17.3875 120.914 17.8475C121.179 18.3025 121.311 18.8925 121.311 19.6175C121.311 20.2725 121.189 20.855 120.944 21.365C120.704 21.875 120.296 22.275 119.721 22.565C119.151 22.855 118.369 23 117.374 23ZM123.141 23C123.141 22.405 123.141 21.8325 123.141 21.2825C123.141 20.7325 123.141 20.1275 123.141 19.4675V15.8825C123.141 15.2075 123.141 14.5925 123.141 14.0375C123.141 13.4775 123.141 12.9 123.141 12.305H124.522C124.522 12.9 124.522 13.4775 124.522 14.0375C124.522 14.5925 124.522 15.2075 124.522 15.8825V19.4675C124.522 20.1275 124.522 20.7325 124.522 21.2825C124.522 21.8325 124.522 22.405 124.522 23H123.141ZM127.591 23C127.591 22.405 127.591 21.8325 127.591 21.2825C127.591 20.7325 127.591 20.1275 127.591 19.4675V15.8825C127.591 15.2075 127.591 14.5925 127.591 14.0375C127.591 13.4775 127.591 12.9 127.591 12.305H128.918C128.918 12.905 128.918 13.485 128.918 14.045C128.918 14.6 128.918 15.2125 128.918 15.8825V20.675H129.031L131.356 17.39C131.931 16.58 132.516 15.755 133.111 14.915C133.706 14.07 134.321 13.2 134.956 12.305H136.126C136.126 12.9 136.126 13.4775 136.126 14.0375C136.126 14.5925 136.126 15.2075 136.126 15.8825V19.4675C136.126 20.1275 136.126 20.7325 136.126 21.2825C136.126 21.8325 136.126 22.405 136.126 23H134.798C134.798 22.405 134.798 21.8325 134.798 21.2825C134.798 20.7275 134.798 20.12 134.798 19.46V14.6225H134.686L132.361 17.9C131.656 18.895 131.011 19.805 130.426 20.63C129.841 21.455 129.281 22.245 128.746 23H127.591ZM131.821 11.165C131.201 11.165 130.686 11.06 130.276 10.85C129.871 10.635 129.566 10.345 129.361 9.98C129.161 9.615 129.058 9.1975 129.053 8.7275L130.096 8.69C130.096 9.205 130.243 9.6075 130.538 9.8975C130.833 10.1875 131.261 10.3325 131.821 10.3325C132.396 10.3325 132.826 10.19 133.111 9.905C133.396 9.62 133.538 9.2275 133.538 8.7275H134.581C134.581 9.1975 134.481 9.615 134.281 9.98C134.086 10.345 133.786 10.635 133.381 10.85C132.976 11.06 132.456 11.165 131.821 11.165ZM147.215 23.165C146.37 23.165 145.608 23.0275 144.928 22.7525C144.253 22.4775 143.678 22.0925 143.203 21.5975C142.728 21.0975 142.363 20.5125 142.108 19.8425C141.858 19.1675 141.733 18.4325 141.733 17.6375C141.733 16.5575 141.955 15.6025 142.4 14.7725C142.845 13.9375 143.463 13.285 144.253 12.815C145.043 12.345 145.963 12.11 147.013 12.11C147.368 12.11 147.713 12.135 148.048 12.185C148.383 12.235 148.7 12.3025 149 12.3875C149.3 12.4725 149.578 12.565 149.833 12.665C150.088 12.765 150.308 12.8675 150.493 12.9725L150.373 14.2775C149.983 14.0475 149.603 13.8625 149.233 13.7225C148.868 13.5775 148.508 13.4725 148.153 13.4075C147.803 13.3425 147.46 13.31 147.125 13.31C146.355 13.31 145.67 13.485 145.07 13.835C144.47 14.185 143.998 14.685 143.653 15.335C143.313 15.98 143.143 16.75 143.143 17.645C143.143 18.24 143.23 18.8 143.405 19.325C143.585 19.85 143.85 20.3125 144.2 20.7125C144.555 21.1125 144.993 21.4275 145.513 21.6575C146.038 21.8825 146.648 21.995 147.343 21.995C147.598 21.995 147.853 21.98 148.108 21.95C148.363 21.915 148.615 21.8625 148.865 21.7925C149.115 21.7225 149.36 21.63 149.6 21.515C149.845 21.395 150.085 21.255 150.32 21.095L150.425 22.385C150.215 22.52 149.983 22.6375 149.728 22.7375C149.478 22.8375 149.213 22.92 148.933 22.985C148.658 23.045 148.375 23.09 148.085 23.12C147.795 23.15 147.505 23.165 147.215 23.165ZM151.994 23C152.204 22.425 152.421 21.82 152.646 21.185C152.876 20.55 153.096 19.9475 153.306 19.3775L154.634 15.7025C154.869 15.0425 155.084 14.4475 155.279 13.9175C155.474 13.3825 155.669 12.845 155.864 12.305H157.649C157.844 12.855 158.036 13.395 158.226 13.925C158.416 14.455 158.629 15.05 158.864 15.71L160.184 19.3925C160.394 19.9825 160.609 20.59 160.829 21.215C161.054 21.835 161.269 22.43 161.474 23H160.064C159.849 22.375 159.626 21.7325 159.396 21.0725C159.171 20.4075 158.959 19.7825 158.759 19.1975L156.809 13.5275H156.681L154.716 19.145C154.501 19.755 154.279 20.395 154.049 21.065C153.819 21.73 153.591 22.375 153.366 23H151.994ZM153.974 20.315L154.094 19.25H159.509L159.606 20.315H153.974ZM163.595 23C163.595 22.405 163.595 21.8325 163.595 21.2825C163.595 20.7325 163.595 20.1275 163.595 19.4675V15.8825C163.595 15.2075 163.595 14.5925 163.595 14.0375C163.595 13.4775 163.595 12.9 163.595 12.305H164.923C164.923 12.905 164.923 13.485 164.923 14.045C164.923 14.6 164.923 15.2125 164.923 15.8825V20.675H165.035L167.36 17.39C167.935 16.58 168.52 15.755 169.115 14.915C169.71 14.07 170.325 13.2 170.96 12.305H172.13C172.13 12.9 172.13 13.4775 172.13 14.0375C172.13 14.5925 172.13 15.2075 172.13 15.8825V19.4675C172.13 20.1275 172.13 20.7325 172.13 21.2825C172.13 21.8325 172.13 22.405 172.13 23H170.803C170.803 22.405 170.803 21.8325 170.803 21.2825C170.803 20.7275 170.803 20.12 170.803 19.46V14.6225H170.69L168.365 17.9C167.66 18.895 167.015 19.805 166.43 20.63C165.845 21.455 165.285 22.245 164.75 23H163.595ZM167.825 11.165C167.205 11.165 166.69 11.06 166.28 10.85C165.875 10.635 165.57 10.345 165.365 9.98C165.165 9.615 165.063 9.1975 165.058 8.7275L166.1 8.69C166.1 9.205 166.248 9.6075 166.543 9.8975C166.838 10.1875 167.265 10.3325 167.825 10.3325C168.4 10.3325 168.83 10.19 169.115 9.905C169.4 9.62 169.543 9.2275 169.543 8.7275H170.585C170.585 9.1975 170.485 9.615 170.285 9.98C170.09 10.345 169.79 10.635 169.385 10.85C168.98 11.06 168.46 11.165 167.825 11.165ZM177.949 23C177.949 22.405 177.949 21.8325 177.949 21.2825C177.949 20.7325 177.949 20.1275 177.949 19.4675V16.0775C177.949 15.4075 177.949 14.795 177.949 14.24C177.949 13.68 177.949 13.1 177.949 12.5L178.489 13.5125H177.221C176.616 13.5125 176.079 13.5125 175.609 13.5125C175.144 13.5125 174.701 13.5125 174.281 13.5125V12.305H182.966V13.5125C182.546 13.5125 182.104 13.5125 181.639 13.5125C181.174 13.5125 180.636 13.5125 180.026 13.5125H178.759L179.306 12.5C179.306 13.1 179.306 13.68 179.306 14.24C179.306 14.795 179.306 15.4075 179.306 16.0775V19.4675C179.306 20.1275 179.306 20.7325 179.306 21.2825C179.306 21.8325 179.306 22.405 179.306 23H177.949ZM25.1748 40C25.1748 39.405 25.1748 38.8325 25.1748 38.2825C25.1748 37.7325 25.1748 37.1275 25.1748 36.4675V32.875C25.1748 32.21 25.1748 31.5975 25.1748 31.0375C25.1748 30.4775 25.1748 29.9 25.1748 29.305H31.8198V30.4675C31.3198 30.4675 30.7823 30.4675 30.2073 30.4675C29.6373 30.4675 28.9623 30.4675 28.1823 30.4675H25.7523L26.5023 29.5C26.5023 30.1 26.5023 30.68 26.5023 31.24C26.5023 31.795 26.5023 32.405 26.5023 33.07V36.265C26.5023 36.92 26.5023 37.525 26.5023 38.08C26.5023 38.63 26.5023 39.2025 26.5023 39.7975L25.8273 38.8375H28.3023C28.9573 38.8375 29.5748 38.8375 30.1548 38.8375C30.7398 38.8375 31.2998 38.8375 31.8348 38.8375V40H25.1748ZM26.2098 35.1475V34.015H28.2873C28.9773 34.015 29.5723 34.015 30.0723 34.015C30.5723 34.015 31.0548 34.015 31.5198 34.015V35.1475C31.0298 35.1475 30.5348 35.1475 30.0348 35.1475C29.5398 35.1475 28.9548 35.1475 28.2798 35.1475H26.2098ZM34.1261 40.135C34.0061 40.135 33.8886 40.13 33.7736 40.12C33.6636 40.11 33.5586 40.0975 33.4586 40.0825C33.3636 40.0675 33.2761 40.0525 33.1961 40.0375L33.2786 38.8525C33.3886 38.8725 33.4886 38.89 33.5786 38.905C33.6686 38.915 33.7511 38.92 33.8261 38.92C34.2661 38.92 34.6036 38.74 34.8386 38.38C35.0736 38.015 35.2461 37.4525 35.3561 36.6925C35.4711 35.9275 35.5636 34.955 35.6336 33.775C35.6786 33.03 35.7211 32.2875 35.7611 31.5475C35.8061 30.8025 35.8511 30.055 35.8961 29.305H42.8786C42.8786 29.9 42.8786 30.4775 42.8786 31.0375C42.8786 31.5925 42.8786 32.2075 42.8786 32.8825V36.4675C42.8786 37.1275 42.8786 37.7325 42.8786 38.2825C42.8786 38.8325 42.8786 39.405 42.8786 40H41.5211C41.5211 39.405 41.5211 38.8325 41.5211 38.2825C41.5211 37.7325 41.5211 37.1275 41.5211 36.4675V33.0775C41.5211 32.4075 41.5211 31.795 41.5211 31.24C41.5211 30.68 41.5211 30.1 41.5211 29.5L42.2486 30.475H36.3986L37.1636 29.5825C37.1136 30.3475 37.0636 31.115 37.0136 31.885C36.9686 32.65 36.9161 33.4425 36.8561 34.2625C36.7911 35.2575 36.7161 36.1225 36.6311 36.8575C36.5461 37.5925 36.4136 38.2025 36.2336 38.6875C36.0586 39.1725 35.8036 39.535 35.4686 39.775C35.1336 40.015 34.6861 40.135 34.1261 40.135ZM45.9604 40C45.9604 39.405 45.9604 38.8325 45.9604 38.2825C45.9604 37.7325 45.9604 37.1275 45.9604 36.4675V32.875C45.9604 32.21 45.9604 31.5975 45.9604 31.0375C45.9604 30.4775 45.9604 29.9 45.9604 29.305H52.6054V30.4675C52.1054 30.4675 51.5679 30.4675 50.9929 30.4675C50.4229 30.4675 49.7479 30.4675 48.9679 30.4675H46.5379L47.2879 29.5C47.2879 30.1 47.2879 30.68 47.2879 31.24C47.2879 31.795 47.2879 32.405 47.2879 33.07V36.265C47.2879 36.92 47.2879 37.525 47.2879 38.08C47.2879 38.63 47.2879 39.2025 47.2879 39.7975L46.6129 38.8375H49.0879C49.7429 38.8375 50.3604 38.8375 50.9404 38.8375C51.5254 38.8375 52.0854 38.8375 52.6204 38.8375V40H45.9604ZM46.9954 35.1475V34.015H49.0729C49.7629 34.015 50.3579 34.015 50.8579 34.015C51.3579 34.015 51.8404 34.015 52.3054 34.015V35.1475C51.8154 35.1475 51.3204 35.1475 50.8204 35.1475C50.3254 35.1475 49.7404 35.1475 49.0654 35.1475H46.9954ZM62.2766 40C62.2766 39.405 62.2766 38.8325 62.2766 38.2825C62.2766 37.7325 62.2766 37.1275 62.2766 36.4675V32.8825C62.2766 32.2075 62.2766 31.5925 62.2766 31.0375C62.2766 30.4775 62.2766 29.9 62.2766 29.305H63.6341C63.6341 29.9 63.6341 30.4775 63.6341 31.0375C63.6341 31.5925 63.6341 32.2075 63.6341 32.8825V36.4675C63.6341 37.1275 63.6341 37.7325 63.6341 38.2825C63.6341 38.8325 63.6341 39.405 63.6341 40H62.2766ZM55.1666 40C55.1666 39.405 55.1666 38.8325 55.1666 38.2825C55.1666 37.7325 55.1666 37.1275 55.1666 36.4675V32.8825C55.1666 32.2075 55.1666 31.5925 55.1666 31.0375C55.1666 30.4775 55.1666 29.9 55.1666 29.305H56.5241C56.5241 29.9 56.5241 30.4775 56.5241 31.0375C56.5241 31.5925 56.5241 32.2075 56.5241 32.8825V36.4675C56.5241 37.1275 56.5241 37.7325 56.5241 38.2825C56.5241 38.8325 56.5241 39.405 56.5241 40H55.1666ZM56.0516 35.17V34H62.7941V35.17H56.0516ZM70.1595 40C69.4695 40 68.8445 40 68.2845 40C67.7295 40 67.202 40 66.702 40C66.702 39.405 66.702 38.8325 66.702 38.2825C66.702 37.7325 66.702 37.1275 66.702 36.4675V32.8825C66.702 32.2125 66.702 31.5975 66.702 31.0375C66.702 30.4775 66.702 29.9 66.702 29.305H68.037C68.037 29.9 68.037 30.4775 68.037 31.0375C68.037 31.5975 68.037 32.2125 68.037 32.8825V36.2575C68.037 36.7275 68.037 37.1725 68.037 37.5925C68.037 38.0075 68.037 38.435 68.037 38.875H69.942C70.582 38.875 71.1045 38.8 71.5095 38.65C71.9195 38.495 72.222 38.2525 72.417 37.9225C72.612 37.5925 72.7095 37.1575 72.7095 36.6175C72.7095 36.1675 72.637 35.8125 72.492 35.5525C72.352 35.2875 72.167 35.09 71.937 34.96C71.707 34.83 71.4545 34.745 71.1795 34.705C70.9095 34.66 70.6495 34.6375 70.3995 34.6375H67.8645V33.5125C68.1745 33.5125 68.5495 33.5125 68.9895 33.5125C69.4295 33.5125 69.927 33.5125 70.482 33.5125C71.297 33.5125 71.9695 33.62 72.4995 33.835C73.0345 34.05 73.4345 34.3875 73.6995 34.8475C73.9645 35.3025 74.097 35.8925 74.097 36.6175C74.097 37.2725 73.9745 37.855 73.7295 38.365C73.4895 38.875 73.082 39.275 72.507 39.565C71.937 39.855 71.1545 40 70.1595 40ZM75.927 40C75.927 39.405 75.927 38.8325 75.927 38.2825C75.927 37.7325 75.927 37.1275 75.927 36.4675V32.8825C75.927 32.2075 75.927 31.5925 75.927 31.0375C75.927 30.4775 75.927 29.9 75.927 29.305H77.307C77.307 29.9 77.307 30.4775 77.307 31.0375C77.307 31.5925 77.307 32.2075 77.307 32.8825V36.4675C77.307 37.1275 77.307 37.7325 77.307 38.2825C77.307 38.8325 77.307 39.405 77.307 40H75.927ZM88.3921 40.165C87.5471 40.165 86.7846 40.0275 86.1046 39.7525C85.4296 39.4775 84.8546 39.0925 84.3796 38.5975C83.9046 38.0975 83.5396 37.5125 83.2846 36.8425C83.0346 36.1675 82.9096 35.4325 82.9096 34.6375C82.9096 33.5575 83.1321 32.6025 83.5771 31.7725C84.0221 30.9375 84.6396 30.285 85.4296 29.815C86.2196 29.345 87.1396 29.11 88.1896 29.11C88.5446 29.11 88.8896 29.135 89.2246 29.185C89.5596 29.235 89.8771 29.3025 90.1771 29.3875C90.4771 29.4725 90.7546 29.565 91.0096 29.665C91.2646 29.765 91.4846 29.8675 91.6696 29.9725L91.5496 31.2775C91.1596 31.0475 90.7796 30.8625 90.4096 30.7225C90.0446 30.5775 89.6846 30.4725 89.3296 30.4075C88.9796 30.3425 88.6371 30.31 88.3021 30.31C87.5321 30.31 86.8471 30.485 86.2471 30.835C85.6471 31.185 85.1746 31.685 84.8296 32.335C84.4896 32.98 84.3196 33.75 84.3196 34.645C84.3196 35.24 84.4071 35.8 84.5821 36.325C84.7621 36.85 85.0271 37.3125 85.3771 37.7125C85.7321 38.1125 86.1696 38.4275 86.6896 38.6575C87.2146 38.8825 87.8246 38.995 88.5196 38.995C88.7746 38.995 89.0296 38.98 89.2846 38.95C89.5396 38.915 89.7921 38.8625 90.0421 38.7925C90.2921 38.7225 90.5371 38.63 90.7771 38.515C91.0221 38.395 91.2621 38.255 91.4971 38.095L91.6021 39.385C91.3921 39.52 91.1596 39.6375 90.9046 39.7375C90.6546 39.8375 90.3896 39.92 90.1096 39.985C89.8346 40.045 89.5521 40.09 89.2621 40.12C88.9721 40.15 88.6821 40.165 88.3921 40.165ZM100.641 40C100.166 39.485 99.7181 39.0025 99.2981 38.5525C98.8831 38.0975 98.4781 37.655 98.0831 37.225L96.0506 35.0275H95.3156V33.91H96.0431L97.8056 32.0725C98.2206 31.6425 98.6306 31.215 99.0356 30.79C99.4406 30.365 99.9106 29.87 100.446 29.305H102.096C101.546 29.87 101.008 30.425 100.483 30.97C99.9631 31.51 99.4431 32.05 98.9231 32.59L96.9431 34.6525L96.9206 34.0525L99.1181 36.475C99.4631 36.845 99.8281 37.245 100.213 37.675C100.603 38.105 100.986 38.5225 101.361 38.9275C101.736 39.3325 102.063 39.69 102.343 40H100.641ZM94.1156 40C94.1156 39.405 94.1156 38.8325 94.1156 38.2825C94.1156 37.7325 94.1156 37.1275 94.1156 36.4675V32.8825C94.1156 32.2075 94.1156 31.5925 94.1156 31.0375C94.1156 30.4775 94.1156 29.9 94.1156 29.305H95.4731C95.4731 29.9 95.4731 30.4775 95.4731 31.0375C95.4731 31.5925 95.4731 32.2075 95.4731 32.8825V36.4675C95.4731 37.1275 95.4731 37.7325 95.4731 38.2825C95.4731 38.8325 95.4731 39.405 95.4731 40H94.1156ZM104.479 40C104.479 39.405 104.479 38.8325 104.479 38.2825C104.479 37.7325 104.479 37.1275 104.479 36.4675V32.875C104.479 32.21 104.479 31.5975 104.479 31.0375C104.479 30.4775 104.479 29.9 104.479 29.305C104.884 29.305 105.407 29.305 106.047 29.305C106.692 29.305 107.429 29.305 108.259 29.305C109.074 29.305 109.747 29.4125 110.277 29.6275C110.812 29.8425 111.212 30.1775 111.477 30.6325C111.742 31.0825 111.874 31.66 111.874 32.365C111.874 33.02 111.752 33.6025 111.507 34.1125C111.267 34.6175 110.862 35.015 110.292 35.305C109.727 35.595 108.954 35.74 107.974 35.74C107.724 35.74 107.457 35.74 107.172 35.74C106.887 35.74 106.609 35.74 106.339 35.74C106.069 35.74 105.834 35.74 105.634 35.74V34.615H107.719C108.359 34.615 108.882 34.54 109.287 34.39C109.697 34.24 109.999 34 110.194 33.67C110.389 33.34 110.487 32.9075 110.487 32.3725C110.487 31.9325 110.414 31.5825 110.269 31.3225C110.129 31.0625 109.942 30.87 109.707 30.745C109.477 30.615 109.227 30.53 108.957 30.49C108.687 30.45 108.424 30.43 108.169 30.43H105.154L105.814 29.5C105.814 30.1 105.814 30.68 105.814 31.24C105.814 31.795 105.814 32.405 105.814 33.07V36.4675C105.814 37.1275 105.814 37.7325 105.814 38.2825C105.814 38.8325 105.814 39.405 105.814 40H104.479ZM117.641 40C116.951 40 116.326 40 115.766 40C115.211 40 114.683 40 114.183 40C114.183 39.405 114.183 38.8325 114.183 38.2825C114.183 37.7325 114.183 37.1275 114.183 36.4675V32.8825C114.183 32.2125 114.183 31.5975 114.183 31.0375C114.183 30.4775 114.183 29.9 114.183 29.305H115.518C115.518 29.9 115.518 30.4775 115.518 31.0375C115.518 31.5975 115.518 32.2125 115.518 32.8825V36.2575C115.518 36.7275 115.518 37.1725 115.518 37.5925C115.518 38.0075 115.518 38.435 115.518 38.875H117.423C118.063 38.875 118.586 38.8 118.991 38.65C119.401 38.495 119.703 38.2525 119.898 37.9225C120.093 37.5925 120.191 37.1575 120.191 36.6175C120.191 36.1675 120.118 35.8125 119.973 35.5525C119.833 35.2875 119.648 35.09 119.418 34.96C119.188 34.83 118.936 34.745 118.661 34.705C118.391 34.66 118.131 34.6375 117.881 34.6375H115.346V33.5125C115.656 33.5125 116.031 33.5125 116.471 33.5125C116.911 33.5125 117.408 33.5125 117.963 33.5125C118.778 33.5125 119.451 33.62 119.981 33.835C120.516 34.05 120.916 34.3875 121.181 34.8475C121.446 35.3025 121.578 35.8925 121.578 36.6175C121.578 37.2725 121.456 37.855 121.211 38.365C120.971 38.875 120.563 39.275 119.988 39.565C119.418 39.855 118.636 40 117.641 40ZM123.408 40C123.408 39.405 123.408 38.8325 123.408 38.2825C123.408 37.7325 123.408 37.1275 123.408 36.4675V32.8825C123.408 32.2075 123.408 31.5925 123.408 31.0375C123.408 30.4775 123.408 29.9 123.408 29.305H124.788C124.788 29.9 124.788 30.4775 124.788 31.0375C124.788 31.5925 124.788 32.2075 124.788 32.8825V36.4675C124.788 37.1275 124.788 37.7325 124.788 38.2825C124.788 38.8325 124.788 39.405 124.788 40H123.408ZM134.967 40C134.967 39.405 134.967 38.8325 134.967 38.2825C134.967 37.7325 134.967 37.1275 134.967 36.4675V32.8825C134.967 32.2075 134.967 31.5925 134.967 31.0375C134.967 30.4775 134.967 29.9 134.967 29.305H136.325C136.325 29.9 136.325 30.4775 136.325 31.0375C136.325 31.5925 136.325 32.2075 136.325 32.8825V36.4675C136.325 37.1275 136.325 37.7325 136.325 38.2825C136.325 38.8325 136.325 39.405 136.325 40H134.967ZM127.857 40C127.857 39.405 127.857 38.8325 127.857 38.2825C127.857 37.7325 127.857 37.1275 127.857 36.4675V32.8825C127.857 32.2075 127.857 31.5925 127.857 31.0375C127.857 30.4775 127.857 29.9 127.857 29.305H129.215C129.215 29.9 129.215 30.4775 129.215 31.0375C129.215 31.5925 129.215 32.2075 129.215 32.8825V36.4675C129.215 37.1275 129.215 37.7325 129.215 38.2825C129.215 38.8325 129.215 39.405 129.215 40H127.857ZM128.742 35.17V34H135.485V35.17H128.742ZM146.503 40C146.503 39.405 146.503 38.8325 146.503 38.2825C146.503 37.7325 146.503 37.1275 146.503 36.4675V32.8825C146.503 32.2075 146.503 31.5925 146.503 31.0375C146.503 30.4775 146.503 29.9 146.503 29.305H147.86C147.86 29.9 147.86 30.4775 147.86 31.0375C147.86 31.5925 147.86 32.2075 147.86 32.8825V36.4675C147.86 37.1275 147.86 37.7325 147.86 38.2825C147.86 38.8325 147.86 39.405 147.86 40H146.503ZM139.393 40C139.393 39.405 139.393 38.8325 139.393 38.2825C139.393 37.7325 139.393 37.1275 139.393 36.4675V32.8825C139.393 32.2075 139.393 31.5925 139.393 31.0375C139.393 30.4775 139.393 29.9 139.393 29.305H140.75C140.75 29.9 140.75 30.4775 140.75 31.0375C140.75 31.5925 140.75 32.2075 140.75 32.8825V36.4675C140.75 37.1275 140.75 37.7325 140.75 38.2825C140.75 38.8325 140.75 39.405 140.75 40H139.393ZM140.278 35.17V34H147.02V35.17H140.278ZM150.928 40C150.928 39.405 150.928 38.8325 150.928 38.2825C150.928 37.7325 150.928 37.1275 150.928 36.4675V32.8825C150.928 32.2075 150.928 31.5925 150.928 31.0375C150.928 30.4775 150.928 29.9 150.928 29.305H152.256C152.256 29.905 152.256 30.485 152.256 31.045C152.256 31.6 152.256 32.2125 152.256 32.8825V37.675H152.368L154.693 34.39C155.268 33.58 155.853 32.755 156.448 31.915C157.043 31.07 157.658 30.2 158.293 29.305H159.463C159.463 29.9 159.463 30.4775 159.463 31.0375C159.463 31.5925 159.463 32.2075 159.463 32.8825V36.4675C159.463 37.1275 159.463 37.7325 159.463 38.2825C159.463 38.8325 159.463 39.405 159.463 40H158.136C158.136 39.405 158.136 38.8325 158.136 38.2825C158.136 37.7275 158.136 37.12 158.136 36.46V31.6225H158.023L155.698 34.9C154.993 35.895 154.348 36.805 153.763 37.63C153.178 38.455 152.618 39.245 152.083 40H150.928ZM169.062 40C168.587 39.485 168.139 39.0025 167.719 38.5525C167.304 38.0975 166.899 37.655 166.504 37.225L164.472 35.0275H163.737V33.91H164.464L166.227 32.0725C166.642 31.6425 167.052 31.215 167.457 30.79C167.862 30.365 168.332 29.87 168.867 29.305H170.517C169.967 29.87 169.429 30.425 168.904 30.97C168.384 31.51 167.864 32.05 167.344 32.59L165.364 34.6525L165.342 34.0525L167.539 36.475C167.884 36.845 168.249 37.245 168.634 37.675C169.024 38.105 169.407 38.5225 169.782 38.9275C170.157 39.3325 170.484 39.69 170.764 40H169.062ZM162.537 40C162.537 39.405 162.537 38.8325 162.537 38.2825C162.537 37.7325 162.537 37.1275 162.537 36.4675V32.8825C162.537 32.2075 162.537 31.5925 162.537 31.0375C162.537 30.4775 162.537 29.9 162.537 29.305H163.894C163.894 29.9 163.894 30.4775 163.894 31.0375C163.894 31.5925 163.894 32.2075 163.894 32.8825V36.4675C163.894 37.1275 163.894 37.7325 163.894 38.2825C163.894 38.8325 163.894 39.405 163.894 40H162.537Z" fill="#F5F5F5"/>
</svg>
